<svg xmlns="http://www.w3.org/2000/svg" width="32.995" height="20.685" viewBox="0 0 32.995 20.685"><defs><style>.a{fill:#fff;}</style></defs><path class="a" d="M13.29,14.57a4.347,4.347,0,0,0,2.772-4.239c0-4.044-3.013-5.029-6.49-5.029H0V25.6H9.841C13.53,25.6,17,23.833,17,19.708A4.892,4.892,0,0,0,13.29,14.57Zm-8.827-5.8H8.65c1.61,0,3.059.453,3.059,2.32,0,1.724-1.128,2.417-2.721,2.417H4.462V8.767ZM9.234,22.154H4.462V16.563H9.326c1.965,0,3.208.819,3.208,2.9,0,2.051-1.484,2.692-3.3,2.692ZM29.77,8.366H21.538v-2H29.77v2Zm3.225,10.1c0-4.348-2.543-7.974-7.155-7.974-4.48,0-7.521,3.368-7.521,7.779,0,4.577,2.881,7.716,7.521,7.716,3.511,0,5.786-1.581,6.88-4.943H29.157c-.384,1.254-1.965,1.919-3.191,1.919-2.366,0-3.609-1.386-3.609-3.741h10.6C32.978,18.981,32.995,18.723,32.995,18.465ZM22.363,16.678a3.155,3.155,0,0,1,3.351-3.139c2.028,0,3.047,1.191,3.219,3.139Z" transform="translate(0 -5.302)"/></svg>